:FULLY-SPECIFIED
:FORCE-ALL-JOINTS-BE-3DOF
:DEGREES
951
root 1.15561 15.2773 32.7329 6.73687 -3.37309 4.7693
lfemur 7.06725 1.13679 4.07122
ltibia 0.292245 -0 0
lfoot -28.6644 -14.3549 -0.00736348
ltoes -31.5504 0 0
rfemur -31.8652 -15.8054 -7.38706
rtibia 49.3028 -0 0
rfoot -20.8129 4.57947 -0.014095
rtoes -42.3745 0 0
lowerback -2.17916 -0.413052 0.657321
upperback -1.42943 -0.571396 -6.80634
thorax -0.329569 -0.326001 -7.47837
lowerneck -6.59276 0.566422 4.56425
upperneck 0.912799 0.293928 3.38068
head 1.39592 0.238178 0.294561
lclavicle 2.65378e-14 4.45278e-14 0
lhumerus -59.0207 -43.8873 112.9
lradius 55.4404 -0 0
lwrist 25.1346 0 0
lhand 39.8472 24.7168 -0.00169325
lfingers 7.12502 -0 0
lthumb 62.2608 35.8226 -0.0129349
rclavicle 2.65378e-14 4.45278e-14 0
rhumerus 3.5205 -33.8481 -1.93164
rradius 29.0103 -0 0
rwrist -15.6872 0 0
rhand -38.365 -49.5285 0.045589
rfingers 7.12502 -0 0
rthumb -11.3899 -79.1691 0.039413
952
root 1.14859 15.2682 32.7256 6.7011 -3.51522 4.73642
lfemur 7.18081 1.25105 4.14166
ltibia 0.27398 -0 0
lfoot -28.7492 -14.2304 -0.00828397
ltoes -31.6572 0 0
rfemur -32.028 -15.8539 -7.29563
rtibia 49.462 -0 0
rfoot -20.9571 4.71955 -0.0158571
rtoes -42.2907 0 0
lowerback -2.14559 -0.420004 0.663006
upperback -1.40841 -0.580753 -6.76542
thorax -0.327434 -0.330207 -7.43745
lowerneck -6.5726 0.610036 4.63867
upperneck 0.862425 0.349489 3.38308
head 1.37688 0.264489 0.284375
lclavicle 2.65378e-14 4.45278e-14 0
lhumerus -58.9807 -43.8816 112.982
lradius 55.3983 -0 0
lwrist 25.1254 0 0
lhand 39.7077 24.7342 -0.00190492
lfingers 7.12502 -0 0
lthumb 62.1439 35.9811 -0.0145519
rclavicle 2.65378e-14 4.45278e-14 0
rhumerus 3.56838 -33.3702 -1.73901
rradius 28.9772 -0 0
rwrist -15.5038 0 0
rhand -37.9689 -49.3637 0.05129
rfingers 7.12502 -0 0
rthumb -11.0077 -79.0214 0.0443415
953
root 1.14158 15.259 32.7182 6.6654 -3.65736 4.70362
lfemur 7.29452 1.36516 4.21234
ltibia 0.255715 -0 0
lfoot -28.8339 -14.1059 -0.00902036
ltoes -31.7641 0 0
rfemur -32.1909 -15.9022 -7.20404
rtibia 49.6213 -0 0
rfoot -21.1012 4.85964 -0.0172667
rtoes -42.207 0 0
lowerback -2.11202 -0.426958 0.668687
upperback -1.3874 -0.590126 -6.7245
thorax -0.325302 -0.334415 -7.39654
lowerneck -6.55239 0.653623 4.71311
upperneck 0.812054 0.405053 3.38543
head 1.35784 0.290797 0.27418
lclavicle 2.65378e-14 4.45278e-14 0
lhumerus -58.9406 -43.8759 113.064
lradius 55.3562 -0 0
lwrist 25.1163 0 0
lhand 39.5682 24.7516 -0.00207425
lfingers 7.12502 -0 0
lthumb 62.0271 36.1396 -0.0158455
rclavicle 2.65378e-14 4.45278e-14 0
rhumerus 3.61792 -32.8924 -1.54696
rradius 28.9441 -0 0
rwrist -15.3204 0 0
rhand -37.5727 -49.1988 0.0558512
rfingers 7.12502 -0 0
rthumb -10.6255 -78.8737 0.0482846
954
root 1.13456 15.2499 32.7109 6.62979 -3.79952 4.6709
lfemur 7.40837 1.47914 4.28324
ltibia 0.237449 -0 0
lfoot -28.9186 -13.9814 -0.00957266
ltoes -31.8709 0 0
rfemur -32.354 -15.9503 -7.11229
rtibia 49.7806 -0 0
rfoot -21.2453 4.99973 -0.018324
rtoes -42.1232 0 0
lowerback -2.07845 -0.433916 0.674364
upperback -1.36639 -0.599514 -6.68359
thorax -0.323172 -0.338625 -7.35563
lowerneck -6.53212 0.697184 4.78756
upperneck 0.761684 0.460619 3.38773
head 1.33878 0.317102 0.263977
lclavicle 2.65378e-14 4.45278e-14 0
lhumerus -58.9005 -43.8703 113.147
lradius 55.3141 -0 0
lwrist 25.1071 0 0
lhand 39.4287 24.769 -0.00220125
lfingers 7.12502 -0 0
lthumb 61.9102 36.2981 -0.0168157
rclavicle 2.65378e-14 4.45278e-14 0
rhumerus 3.66908 -32.4148 -1.35544
rradius 28.911 -0 0
rwrist -15.137 0 0
rhand -37.1766 -49.0339 0.0592723
rfingers 7.12502 -0 0
rthumb -10.2432 -78.726 0.0512422
955
root 1.12754 15.2407 32.7035 6.59424 -3.94171 4.63826
lfemur 7.52237 1.59297 4.35438
ltibia 0.219184 -0 0
lfoot -29.0033 -13.8569 -0.00994086
ltoes -31.9777 0 0
rfemur -32.5171 -15.9981 -7.02037
rtibia 49.9398 -0 0
rfoot -21.3894 5.13982 -0.0190288
rtoes -42.0395 0 0
lowerback -2.04488 -0.440877 0.680037
upperback -1.3454 -0.608917 -6.64268
thorax -0.321046 -0.342836 -7.31471
lowerneck -6.51179 0.740719 4.86203
upperneck 0.711316 0.516187 3.38998
head 1.31973 0.343403 0.253764
lclavicle 2.65378e-14 4.45278e-14 0
lhumerus -58.8604 -43.8647 113.229
lradius 55.272 -0 0
lwrist 25.0979 0 0
lhand 39.2892 24.7864 -0.00228592
lfingers 7.12502 -0 0
lthumb 61.7933 36.4566 -0.0174626
rclavicle 2.65378e-14 4.45278e-14 0
rhumerus 3.72186 -31.9373 -1.16442
rradius 28.8779 -0 0
rwrist -14.9536 0 0
rhand -36.7804 -48.869 0.0615531
rfingers 7.12502 -0 0
rthumb -9.86102 -78.5782 0.0532139
